Patient4_TMGait_0pt5_01_left_03_GRF.mot
version=1
nRows=52
nColumns=19
inDegrees=no
endheader
time	F1x	F1y	F1z	M1x	M1y	M1z	F2x	F2y	F2z	M2x	M2y	M2z	EC1x	EC1y	EC1z	EC2x	EC2y	EC2z
3.83	2.6294	-1.9622	12.4511	-2.2153	-8.0566	-9.3924	-44.355	772.9321	-72.2265	285.692	78.9087	657.4967	-0.0592	0.0182	-0.0073	-0.0462	0.0165	0.9585
3.8439	1.5801	-0.90875	8.4189	-1.662	-5.537	-5.9261	-42.0731	762.4347	-67.0803	281.8242	72.6402	644.8589	-0.0592	0.0182	-0.0073	-0.0462	0.0165	0.9585
3.8579	0.69749	-0.035615	4.974	-1.1817	-3.3847	-3.0282	-39.1105	752.3378	-61.9999	278.2224	66.3293	631.8878	-0.0592	0.0182	-0.0073	-0.0462	0.0165	0.9585
3.8718	0.03108	0.62342	2.3301	-0.81168	-1.7333	-0.8484	-35.6082	743.9027	-57.3505	275.349	60.3929	619.7993	-0.0592	0.0182	-0.0073	-0.0462	0.0165	0.9585
3.8857	-0.43338	1.0872	0.49329	-0.55767	-0.59218	0.64377	-31.7742	738.0536	-53.3924	273.5184	55.1244	609.5166	-0.0592	0.0182	-0.0073	-0.0462	0.0165	0.9585
3.8996	-0.7245	1.3879	-0.6544	-0.40529	0.11549	1.552	-27.8307	735.2482	-50.2941	272.8626	50.707	601.5522	-0.0592	0.0182	-0.0073	-0.0462	0.0165	0.9585
3.9136	-0.89082	1.5656	-1.2642	-0.33058	0.48034	2.0276	-23.9472	735.4719	-48.1141	273.3428	47.1988	595.9836	-0.0592	0.0182	-0.0073	-0.0462	0.0165	0.9585
3.9275	-0.98498	1.6454	-1.504	-0.30407	0.60467	2.2024	-20.2099	738.3273	-46.8197	274.7888	44.551	592.5365	-0.0592	0.0182	-0.0073	-0.0462	0.0165	0.9585
3.9414	-1.0486	1.6215	-1.5103	-0.29225	0.57301	2.1491	-16.6594	743.1656	-46.2911	276.9463	42.6286	590.7205	-0.0592	0.0182	-0.0073	-0.0462	0.0165	0.9585
3.9554	-1.1172	1.4719	-1.3962	-0.26073	0.45864	1.9262	-13.3002	749.1799	-46.3729	279.5114	41.2663	589.906	-0.0592	0.0182	-0.0073	-0.0462	0.0165	0.9585
3.9693	-1.2062	1.1466	-1.2338	-0.1715	0.30852	1.5417	-10.1297	755.5145	-46.8927	282.1684	40.2929	589.4215	-0.0592	0.0182	-0.0073	-0.0462	0.0165	0.9585
3.9832	-1.3109	0.58939	-1.0724	0.0086776	0.15754	0.96754	-7.1523	761.3422	-47.686	284.6148	39.5583	588.6299	-0.0592	0.0182	-0.0073	-0.0462	0.0165	0.9585
3.9971	-1.4186	-0.24625	-0.93992	0.30344	0.029639	0.17292	-4.3827	765.9264	-48.5915	286.5828	38.9314	586.9716	-0.0592	0.0182	-0.0073	-0.0462	0.0165	0.9585
4.0111	-1.4794	-1.389	-0.84007	0.72337	-0.056692	-0.87024	-1.8612	768.7195	-49.4649	287.8707	38.3139	584.0573	-0.0592	0.0182	-0.0073	-0.0462	0.0165	0.9585
4.025	-1.4219	-2.8037	-0.77935	1.2536	-0.065777	-2.1359	0.37476	769.419	-50.1911	288.3632	37.6366	579.7033	-0.0592	0.0182	-0.0073	-0.0462	0.0165	0.9585
4.0389	-1.1445	-4.3565	-0.74972	1.8415	0.036795	-3.5241	2.307	767.9543	-50.7199	288.027	36.8769	573.9051	-0.0592	0.0182	-0.0073	-0.0462	0.0165	0.9585
4.0529	-0.51631	-5.7633	-0.75141	2.3746	0.30355	-4.7992	3.9503	764.5339	-51.0567	286.9264	36.0391	566.8595	-0.0592	0.0182	-0.0073	-0.0462	0.0165	0.9585
4.0668	0.60052	-6.5355	-0.78029	2.6624	0.78627	-5.5333	5.3724	759.624	-51.2324	285.2189	35.1258	558.9251	-0.0592	0.0182	-0.0073	-0.0462	0.0165	0.9585
4.0807	2.3497	-5.931	-0.83806	2.4176	1.5347	-5.0715	6.6668	753.8379	-51.2906	283.112	34.1408	550.5645	-0.0592	0.0182	-0.0073	-0.0462	0.0165	0.9585
4.0946	4.8115	-2.9171	-0.92573	1.2437	2.5706	-2.4901	7.9437	747.7194	-51.2742	280.7888	33.0852	542.1753	-0.0592	0.0182	-0.0073	-0.0462	0.0165	0.9585
4.1086	7.9464	3.7892	-1.0265	-1.3498	3.8539	3.358	9.3	741.5213	-51.2415	278.3274	31.9794	533.9443	-0.0592	0.0182	-0.0073	-0.0462	0.0165	0.9585
4.1225	11.4996	15.5983	-1.1222	-5.9025	5.2646	13.7357	10.7775	735.0337	-51.2534	275.639	30.866	525.7458	-0.0592	0.0182	-0.0073	-0.0462	0.0165	0.9585
4.1364	14.8761	33.7914	-1.1682	-12.9022	6.5371	29.8096	12.3576	727.563	-51.3423	272.4655	29.7923	517.1133	-0.0592	0.0182	-0.0073	-0.0462	0.0165	0.9585
4.1504	17.0687	59.1036	-1.111	-22.6275	7.2442	52.2605	13.9331	718.1017	-51.4701	268.4451	28.7894	507.3817	-0.0592	0.0182	-0.0073	-0.0462	0.0165	0.9585
4.1643	16.7657	91.2776	-0.85367	-34.9808	6.8061	80.9271	15.3388	705.5363	-51.5161	263.1913	27.8544	495.8278	-0.0592	0.0182	-0.0073	-0.0462	0.0165	0.9585
4.1782	13.1977	129.034	-0.26471	-49.4709	4.8165	114.7525	16.4016	688.9015	-51.2959	256.3861	26.9436	481.8301	-0.0592	0.0182	-0.0073	-0.0462	0.0165	0.9585
4.1921	7.1319	170.2927	0.8764	-65.2768	1.3739	151.8937	16.9867	667.6263	-50.6113	247.8664	25.9884	465.0392	-0.0592	0.0182	-0.0073	-0.0462	0.0165	0.9585
4.2061	0.069405	211.5459	2.8972	-81.0232	-3.2319	189.0574	17.0636	641.5833	-49.3059	237.6362	24.9081	445.3719	-0.0592	0.0182	-0.0073	-0.0462	0.0165	0.9585
4.22	-6.6417	248.7558	5.9267	-95.169	-8.5804	222.3716	16.718	611.1252	-47.3132	225.8751	23.6389	423.0262	-0.0592	0.0182	-0.0073	-0.0462	0.0165	0.9585
4.2339	-12.1928	280.2247	9.4821	-107.0918	-13.8884	250.14	16.1538	577.1772	-44.6771	212.9584	22.1343	398.5554	-0.0592	0.0182	-0.0073	-0.0462	0.0165	0.9585
4.2479	-16.3771	306.8954	13.0562	-117.1886	-18.6038	273.12	15.6321	540.9741	-41.6017	199.3527	20.4216	372.7055	-0.0592	0.0182	-0.0073	-0.0462	0.0165	0.9585
4.2618	-19.2988	331.0151	16.2998	-126.3502	-22.4568	293.2622	15.3278	503.6134	-38.3085	185.4537	18.5606	346.1589	-0.0592	0.0182	-0.0073	-0.0462	0.0165	0.9585
4.2757	-21.1117	354.9533	19.0213	-135.4984	-25.3551	312.6146	15.317	465.7708	-34.932	171.4897	16.5912	319.3438	-0.0592	0.0182	-0.0073	-0.0462	0.0165	0.9585
4.2896	-21.9693	380.5263	21.244	-145.3209	-27.4023	332.7552	15.5566	427.6692	-31.5368	157.5143	14.5475	292.4224	-0.0592	0.0182	-0.0073	-0.0462	0.0165	0.9585
4.3036	-22.0057	408.8051	23.0884	-156.2061	-28.776	354.6006	15.8966	389.162	-28.1739	143.4382	12.4902	265.3296	-0.0592	0.0182	-0.0073	-0.0462	0.0165	0.9585
4.3175	-21.3781	440.1369	24.8632	-168.2458	-29.8189	378.4577	16.109	349.8889	-24.9035	129.0939	10.5165	237.8594	-0.0592	0.0182	-0.0073	-0.0462	0.0165	0.9585
4.3314	-20.266	474.3376	26.8971	-181.3255	-30.8826	404.1803	15.9168	309.5357	-21.7785	114.3351	8.7415	209.8402	-0.0592	0.0182	-0.0073	-0.0462	0.0165	0.9585
4.3454	-18.8959	510.9955	29.5108	-195.2477	-32.3218	431.4434	15.0621	268.0948	-18.8424	99.1387	7.2767	181.2879	-0.0592	0.0182	-0.0073	-0.0462	0.0165	0.9585
4.3593	-17.5021	549.6521	32.8255	-209.8146	-34.3096	459.8918	13.3715	226.0783	-16.1241	83.6808	6.2051	152.5602	-0.0592	0.0182	-0.0073	-0.0462	0.0165	0.9585
4.3732	-16.2416	589.7987	36.809	-224.8238	-36.8726	489.1549	10.8494	184.558	-13.6525	68.3554	5.5482	124.3653	-0.0592	0.0182	-0.0073	-0.0462	0.0165	0.9585
4.3871	-15.1968	630.685	41.2208	-239.9908	-39.834	518.6858	7.7345	145.0192	-11.4362	53.7194	5.229	97.6563	-0.0592	0.0182	-0.0073	-0.0462	0.0165	0.9585
4.4011	-14.3869	671.0978	45.7654	-254.8579	-42.9624	547.5772	4.4665	109.0089	-9.4583	40.3612	5.082	73.413	-0.0592	0.0182	-0.0073	-0.0462	0.0165	0.9585
4.415	-13.8227	709.3597	50.134	-268.7932	-46.0141	574.5599	1.5211	77.7211	-7.6587	28.7437	4.9052	52.3759	-0.0592	0.0182	-0.0073	-0.0462	0.0165	0.9585
4.4289	-13.5159	743.6042	54.1023	-281.0936	-48.8148	598.2331	-0.77565	51.8221	-5.9858	19.1301	4.5602	34.9572	-0.0592	0.0182	-0.0073	-0.0462	0.0165	0.9585
4.4429	-13.4274	772.1498	57.5023	-291.133	-51.211	617.3402	-2.2754	31.4819	-4.4251	11.5918	3.9959	21.2574	-0.0592	0.0182	-0.0073	-0.0462	0.0165	0.9585
4.4568	-13.4693	793.7503	60.2548	-298.4577	-53.0996	630.9611	-2.9668	16.4567	-3.018	6.0379	3.2472	11.1173	-0.0592	0.0182	-0.0073	-0.0462	0.0165	0.9585
4.4707	-13.4937	807.7364	62.3343	-302.8404	-54.407	638.6135	-2.9944	6.1914	-1.8262	2.2566	2.4126	4.1731	-0.0592	0.0182	-0.0073	-0.0462	0.0165	0.9585
4.4846	-13.3406	814.05	63.7319	-304.2961	-55.0727	640.2745	-2.6324	-0.10966	-0.91567	-0.052647	1.6366	-0.1075	-0.0592	0.0182	-0.0073	-0.0462	0.0165	0.9585
4.4986	-12.8693	813.2669	64.4718	-303.0813	-55.0753	636.4077	-2.1122	-3.3963	-0.29071	-1.2465	1.0026	-2.3468	-0.0592	0.0182	-0.0073	-0.0462	0.0165	0.9585
4.5125	-11.9904	806.5521	64.581	-299.6765	-54.4096	627.9075	-1.5804	-4.6004	0.092853	-1.6719	0.53097	-3.1617	-0.0592	0.0182	-0.0073	-0.0462	0.0165	0.9585
4.5264	-10.6858	795.5262	64.1392	-294.7287	-53.1429	616.0008	-1.1126	-4.5155	0.28926	-1.6227	0.21314	-3.0963	-0.0592	0.0182	-0.0073	-0.0462	0.0165	0.9585
4.5404	-8.9814	782.0452	63.2257	-288.9698	-51.3564	602.0688	-0.74363	-3.7409	0.35968	-1.3227	0.019191	-2.5563	-0.0592	0.0182	-0.0073	-0.0462	0.0165	0.9585
